<svg xmlns="http://www.w3.org/2000/svg"  viewBox="0 0 48 48" width="48px" height="48px"><path fill="#febf10" d="M36.985,38.885c-1.644,1.206-3.513,2.054-5.369,2.875c-1.959,0.868-4.006,1.755-6.168,1.92 c-1.141,0.087-2.278-0.05-3.41-0.178c-1.108-0.126-2.217-0.261-3.309-0.493c-2.082-0.444-3.93-1.353-5.689-2.534 c-0.84-0.563-1.654-1.164-2.465-1.767c-0.841-0.624-1.401-1.342-2.066-2.232c-0.602-0.806-1.149-1.692-1.574-2.598 c-0.458-0.975-0.969-1.925-1.405-2.909c-1.669-3.776-1.745-8.097-0.55-12.019c1.115-3.659,3.327-6.918,6.076-9.549 c2.849-2.726,6.295-4.502,10.235-4.971c0.943-0.112,1.891-0.149,2.84-0.13c1.969,0.054,3.937,0.262,5.843,0.775 c1.959,0.526,3.722,1.434,5.358,2.627c1.618,1.18,3.061,2.595,4.387,4.092c0.684,0.773,1.367,1.562,1.901,2.448 c0.56,0.927,0.902,1.952,1.198,2.989C44.968,24.792,43.698,33.96,36.985,38.885z"/><path fill="#f58420" d="M29.073,23.732c0.886-0.499,1.786-1.045,2.371-1.877c0.766-1.091,0.873-2.543,0.567-3.841 c-0.307-1.298-0.985-2.475-1.692-3.605c-0.564-0.9-1.337-1.889-2.399-1.867c-0.112-1.316-0.362-2.621-0.745-3.885 c-0.529-0.013-1.057-0.026-1.586-0.038c-0.124-0.003-0.263,0-0.351,0.088c-0.078,0.079-0.088,0.2-0.094,0.311 c-0.067,1.304-0.135,2.609-0.202,3.913c-0.763-0.038-1.527-0.076-2.29-0.114l-0.141-2.265c-0.067-0.449-0.134-0.899-0.201-1.348 c-0.016-0.104-0.036-0.219-0.117-0.286c-0.082-0.069-0.2-0.068-0.306-0.064c-0.793,0.03-1.586,0.059-2.38,0.089 c-0.147,0.005-0.315,0.022-0.401,0.141c-0.057,0.079-0.061,0.184-0.063,0.282c-0.018,0.995-0.017,2,0.203,2.97 c-1.032,0.071-3.099,0.135-3.099,0.135c0.215,6.774,0.12,15.654,0.324,22.125c0.007,0.208,0.069,0.434,0.234,0.562 c0.131,0.102,0.308,0.114,0.474,0.123c0.629,0.032,1.258,0.064,1.886,0.096c0.101,0.853,0.201,1.707,0.302,2.56 c0.03,0.25,0.062,0.51,0.197,0.723c0.355,0.56,1.172,0.517,1.826,0.405c0.242-0.041,0.508-0.097,0.653-0.295 c0.108-0.147,0.122-0.34,0.133-0.522c0.054-0.928,0.108-1.857,0.163-2.785c0.682-0.201,1.406-0.257,2.111-0.164 c0.175,1.166,0.35,2.332,0.525,3.498c0.697,0.24,1.479,0.221,2.164-0.052c0.149-1.014,0.202-2.042,0.157-3.066 c2.632-0.427,4.861-2.685,5.254-5.322C32.94,27.717,31.466,24.907,29.073,23.732z M23.507,16.603 c1.011-0.096,2.058-0.168,3.02,0.161s1.822,1.161,1.87,2.176c0.05,1.052-0.785,1.982-1.758,2.385 c-0.973,0.402-2.06,0.391-3.112,0.374c-0.946-0.016-1.892-0.031-2.838-0.047c-0.03-1.695-0.151-3.389-0.365-5.072 C20.324,16.58,22.496,16.699,23.507,16.603z M28.707,29.046c-0.051,0.614-0.265,1.25-0.745,1.637 c-0.401,0.323-0.929,0.43-1.436,0.513c-2.067,0.337-4.174,0.434-6.263,0.287c-0.065-0.005-0.136-0.012-0.181-0.059 c-0.043-0.045-0.049-0.112-0.052-0.174c-0.105-1.856,0.257-5.877,0.257-5.877c1.156,0.04,2.312,0.08,3.469,0.12 c0.885,0.031,1.784,0.063,2.629,0.327s1.648,0.793,2.044,1.585C28.68,27.907,28.753,28.486,28.707,29.046z"/><path fill="#010101" d="M44.156,20.267c-0.337-2.145-0.844-4.477-1.979-6.356c-1.072-1.776-2.616-3.364-4.122-4.776 c-1.502-1.41-3.183-2.713-5.041-3.62c-1.83-0.894-3.821-1.374-5.833-1.634c-1.009-0.131-2.025-0.2-3.042-0.228 c-3.988-0.077-8.022,0.977-11.26,3.36c-3.167,2.33-5.843,5.54-7.492,9.112c-1.748,3.786-2.352,8.106-1.407,12.192 c0.494,2.138,1.536,4.016,2.456,5.987c0.447,0.958,1.034,1.88,1.688,2.719c0.614,0.789,1.208,1.543,2.026,2.155 c1.697,1.27,3.424,2.563,5.36,3.448c2.082,0.952,4.32,1.268,6.574,1.524c1.15,0.131,2.304,0.267,3.462,0.165 c1.068-0.094,2.114-0.338,3.131-0.675c2.068-0.685,4.111-1.618,6.046-2.615c3.539-1.825,6.307-4.661,7.959-8.296 C44.455,28.828,44.817,24.474,44.156,20.267z M36.762,38.617c-1.614,1.184-3.45,2.017-5.272,2.823 c-1.924,0.852-3.934,1.723-6.057,1.885c-1.12,0.085-2.237-0.049-3.349-0.175c-1.088-0.124-2.177-0.256-3.249-0.484 c-2.045-0.436-3.859-1.329-5.587-2.488c-0.825-0.553-1.624-1.143-2.421-1.735c-0.826-0.613-1.376-1.318-2.029-2.192 C8.207,35.46,7.67,34.589,7.252,33.7c-0.45-0.957-0.952-1.89-1.38-2.857c-1.639-3.708-1.714-7.951-0.54-11.803 c1.095-3.593,3.267-6.793,5.967-9.377c2.798-2.677,6.182-4.421,10.051-4.882c0.926-0.11,1.857-0.146,2.789-0.128 c1.934,0.053,3.866,0.257,5.738,0.761c1.924,0.517,3.655,1.408,5.262,2.58c1.589,1.159,3.006,2.548,4.308,4.018 c0.672,0.759,1.342,1.534,1.867,2.404c0.55,0.91,0.886,1.917,1.176,2.935C44.601,24.778,43.354,33.781,36.762,38.617z"/><path fill="#010101" d="M30.161,23.738c0.871-0.548,1.681-1.2,2.142-2.145c0.577-1.182,0.606-2.561,0.289-3.82 c-0.348-1.379-1.082-2.666-1.861-3.843c-0.557-0.841-1.259-1.628-2.247-1.836c-0.136-1.209-0.355-2.402-0.701-3.57 c-0.064-0.216-0.259-0.362-0.482-0.367c-0.85-0.021-2.362-0.398-2.52,0.777c-0.153,1.136-0.152,2.318-0.192,3.473 c-0.446-0.022-0.893-0.045-1.339-0.067c-0.037-0.596-0.074-1.193-0.112-1.789c-0.002-0.029-0.015-0.05-0.021-0.077 c-0.001-0.019,0.006-0.036,0.003-0.056c-0.093-0.627-0.005-1.762-0.739-2.013c-0.39-0.133-0.912-0.032-1.319-0.017 c-0.474,0.018-0.955,0.016-1.428,0.053c-0.73,0.058-0.951,0.459-0.968,1.152c-0.019,0.759,0.032,1.515,0.141,2.264 c-0.844,0.047-1.689,0.084-2.534,0.11c-0.264,0.008-0.509,0.222-0.5,0.5c0.14,4.482,0.147,8.966,0.183,13.45 c0.018,2.203,0.039,4.406,0.086,6.609c0.011,0.506,0.023,1.012,0.038,1.517c0.012,0.417-0.024,0.885,0.214,1.252 c0.236,0.363,0.607,0.45,1.01,0.483c0.479,0.039,0.962,0.057,1.443,0.076c0.05,0.422,0.099,0.843,0.149,1.265 c0.058,0.489,0.059,1.036,0.227,1.503c0.263,0.731,0.98,1.01,1.706,1.009c0.699-0.001,1.655-0.119,1.9-0.891 c0.14-0.441,0.098-0.965,0.125-1.423c0.028-0.478,0.056-0.955,0.084-1.433c0.4-0.08,0.801-0.111,1.207-0.097 c0.157,1.047,0.314,2.093,0.471,3.14c0.025,0.17,0.197,0.303,0.349,0.349c0.811,0.247,1.631,0.234,2.429-0.052 c0.15-0.054,0.325-0.174,0.349-0.349c0.13-0.936,0.183-1.87,0.171-2.813c2.66-0.636,4.85-2.915,5.25-5.642 C33.545,27.839,32.293,25.193,30.161,23.738z M32.181,30.288c-0.379,2.487-2.448,4.471-4.893,4.907 c-0.207,0.037-0.374,0.279-0.367,0.482c0.032,0.895-0.008,1.787-0.116,2.675c-0.423,0.106-0.836,0.116-1.265,0.03 c-0.161-1.073-0.322-2.145-0.483-3.218c-0.035-0.232-0.281-0.345-0.482-0.367c-0.762-0.084-1.505-0.019-2.244,0.182 c-0.222,0.06-0.354,0.261-0.367,0.482c-0.038,0.658-0.077,1.315-0.115,1.973c-0.018,0.314,0.035,0.714-0.165,0.962 c-0.193,0.238-0.552,0.238-0.853,0.236c-0.778-0.004-0.814-0.5-0.892-1.163c-0.082-0.698-0.165-1.396-0.247-2.095 c-0.033-0.28-0.203-0.485-0.5-0.5c-0.314-0.016-0.629-0.032-0.943-0.048c-0.244-0.012-0.725,0.055-0.943-0.048 c-0.372-0.175-0.23-0.948-0.239-1.295c-0.023-0.914-0.041-1.827-0.055-2.741c-0.032-2.04-0.048-4.08-0.063-6.121 c-0.029-3.892-0.05-7.785-0.164-11.675c0.863-0.028,1.727-0.055,2.589-0.112c0.337-0.022,0.552-0.3,0.482-0.633 c-0.101-0.482-0.157-0.965-0.179-1.457c-0.01-0.23-0.013-0.46-0.014-0.69c0-0.069-0.029-0.462-0.006-0.618 c0.06,0.062,0.415-0.01,0.453-0.012c0.238-0.009,0.476-0.018,0.714-0.027c0.321-0.012,0.779-0.095,1.136-0.046 c0.124,0.339,0.145,0.824,0.181,1.181c0,0.007-0.003,0.012-0.003,0.019c0.047,0.755,0.094,1.51,0.141,2.265 c0.017,0.28,0.215,0.486,0.5,0.5c0.763,0.038,1.527,0.076,2.29,0.114c0.28,0.014,0.487-0.241,0.5-0.5 c0.05-0.978,0.101-1.957,0.151-2.935c0.012-0.239,0.058-0.497,0.038-0.734c0.002-0.038,0.004-0.076,0.006-0.114 c0.037,0.005,0.091,0,0.178-0.023c0.279,0.073,0.638,0.054,0.969,0.04c0.306,1.108,0.531,2.23,0.635,3.377 c0.025,0.276,0.209,0.491,0.5,0.5c1.004,0.031,1.612,1.045,2.084,1.808c0.62,1,1.207,2.04,1.497,3.189 c0.259,1.027,0.257,2.177-0.233,3.138c-0.511,1.003-1.501,1.587-2.447,2.124c-0.314,0.178-0.337,0.692,0,0.863 C31.15,25.288,32.559,27.809,32.181,30.288z"/><path fill="#010101" d="M20.816,22.152c1.595,0.026,3.257,0.187,4.842-0.031c1.283-0.176,2.568-0.801,3.129-2.036 c0.544-1.198,0.061-2.474-0.948-3.243c-1.206-0.921-2.769-0.873-4.205-0.738c-1.053,0.092-2.129,0.034-3.184-0.023 c-0.246-0.013-0.532,0.241-0.5,0.5c0.211,1.684,0.332,3.375,0.365,5.072C20.321,21.926,20.541,22.147,20.816,22.152z M23.635,17.103c1.148-0.107,2.441-0.229,3.458,0.429c0.856,0.554,1.224,1.572,0.608,2.45c-0.652,0.93-1.826,1.171-2.892,1.213 c-1.168,0.047-2.345-0.004-3.515-0.032c-0.04-1.357-0.137-2.711-0.291-4.06C21.88,17.147,22.764,17.18,23.635,17.103z"/><path fill="#010101" d="M27.904,25.945c-0.942-0.668-2.111-0.852-3.238-0.919c-1.415-0.084-2.835-0.104-4.252-0.153 c-0.279-0.01-0.429,0.174-0.466,0.386c-0.012,0.037-0.03,0.071-0.034,0.114c-0.096,1.075-0.171,2.152-0.223,3.23 c-0.037,0.753-0.066,1.509-0.049,2.264c0.008,0.355-0.014,0.764,0.315,0.99c0.18,0.123,0.394,0.123,0.603,0.139 c0.338,0.027,0.679,0.037,1.018,0.046c1.245,0.033,2.492-0.021,3.73-0.159c1.008-0.113,2.257-0.147,3.085-0.806 c0.773-0.614,1.019-1.699,0.942-2.644C29.251,27.403,28.743,26.539,27.904,25.945z M27.725,30.334 c-0.322,0.235-0.752,0.303-1.135,0.368c-0.537,0.092-1.078,0.161-1.62,0.215c-1.042,0.103-2.09,0.146-3.138,0.129 c-0.255-0.004-0.509-0.012-0.764-0.024c-0.058-0.003-0.269-0.039-0.339-0.017c-0.016-0.001-0.031-0.002-0.047-0.003 c0.004-0.218-0.044-0.48-0.044-0.662c0.003-0.654,0.03-1.308,0.064-1.961c0.043-0.831,0.107-1.661,0.176-2.491 c0.915,0.032,1.83,0.063,2.745,0.095c0.965,0.033,1.954,0.039,2.877,0.358c0.748,0.258,1.457,0.777,1.717,1.55 C28.47,28.64,28.426,29.821,27.725,30.334z"/></svg>